<?xml version="1.0" encoding="iso-8859-1"?>
<!-- Generator: Adobe Illustrator 18.0.0, SVG Export Plug-In . SVG Version: 6.00 Build 0)  -->
<!DOCTYPE svg PUBLIC "-//W3C//DTD SVG 1.1//EN" "http://www.w3.org/Graphics/SVG/1.1/DTD/svg11.dtd">
<svg version="1.1" id="Capa_1" xmlns="http://www.w3.org/2000/svg" xmlns:xlink="http://www.w3.org/1999/xlink" x="0px" y="0px"
	 viewBox="0 0 176.26 176.26" style="enable-background:new 0 0 176.26 176.26;" xml:space="preserve">
<g>
	<path d="M67.346,136.988c-10.826,0-19.635,8.808-19.635,19.633c0,10.829,8.809,19.639,19.635,19.639s19.635-8.81,19.635-19.639
		C86.98,145.796,78.172,136.988,67.346,136.988z M67.346,164.26c-4.21,0-7.635-3.427-7.635-7.639c0-4.209,3.425-7.633,7.635-7.633
		s7.635,3.424,7.635,7.633C74.98,160.833,71.556,164.26,67.346,164.26z"/>
	<path d="M134.533,136.988c-10.826,0-19.635,8.808-19.635,19.633c0,10.829,8.809,19.639,19.635,19.639
		c10.828,0,19.637-8.81,19.637-19.639C154.17,145.796,145.361,136.988,134.533,136.988z M134.533,164.26
		c-4.21,0-7.635-3.427-7.635-7.639c0-4.209,3.425-7.633,7.635-7.633c4.211,0,7.637,3.424,7.637,7.633
		C142.17,160.833,138.744,164.26,134.533,164.26z"/>
	<path d="M152.81,134.525l23.257-89.434H38.215l-6.712-25.813H0.193v12h22.03l26.848,103.246H152.81z M114.898,82.902v13.813H86.98
		V82.902H114.898z M86.98,70.902v-13.81h27.918v13.81H86.98z M126.898,82.902h26.936l-3.592,13.813h-23.344V82.902z
		 M114.898,108.715v13.811H86.98v-13.811H114.898z M74.98,96.715H51.639l-3.592-13.813H74.98V96.715z M54.76,108.715H74.98v13.811
		h-16.63L54.76,108.715z M126.898,122.525v-13.811h20.224l-3.592,13.811H126.898z M156.955,70.902h-30.057v-13.81h33.648
		L156.955,70.902z M74.98,57.092v13.81H44.926l-3.591-13.81H74.98z"/>
	<polygon points="96.329,26.18 109.517,39.369 118.003,30.885 104.814,17.694 112.377,10.132 78.635,0 88.767,33.742 	"/>
</g>
<g>
</g>
<g>
</g>
<g>
</g>
<g>
</g>
<g>
</g>
<g>
</g>
<g>
</g>
<g>
</g>
<g>
</g>
<g>
</g>
<g>
</g>
<g>
</g>
<g>
</g>
<g>
</g>
<g>
</g>
</svg>
